<?xml version="1.0" encoding="utf-8"?>
<!-- Generator: Adobe Illustrator 21.1.0, SVG Export Plug-In . SVG Version: 6.00 Build 0)  -->
<svg version="1.1" id="Layer_1" xmlns="http://www.w3.org/2000/svg" xmlns:xlink="http://www.w3.org/1999/xlink" x="0px" y="0px"
	 viewBox="0 0 24 24" enable-background="new 0 0 24 24" xml:space="preserve">
<path d="M22.6,3.9c-0.3-0.3-0.7-0.5-1.2-0.5h-1.7V2.1c0-0.6-0.2-1.1-0.6-1.5C18.7,0.2,18.2,0,17.6,0h-0.9c-0.6,0-1.1,0.2-1.5,0.6
	c-0.4,0.4-0.6,0.9-0.6,1.5v1.3H9.4V2.1c0-0.6-0.2-1.1-0.6-1.5C8.4,0.2,7.9,0,7.3,0H6.4C5.8,0,5.3,0.2,4.9,0.6C4.5,1,4.3,1.6,4.3,2.1
	v1.3H2.6c-0.5,0-0.9,0.2-1.2,0.5C1,4.3,0.9,4.7,0.9,5.1v17.1c0,0.5,0.2,0.9,0.5,1.2C1.7,23.8,2.1,24,2.6,24h18.9
	c0.5,0,0.9-0.2,1.2-0.5c0.3-0.3,0.5-0.7,0.5-1.2V5.1C23.1,4.7,23,4.3,22.6,3.9L22.6,3.9z M6.4,22.3H2.6v-3.9h3.9V22.3z M6.4,17.6
	H2.6v-4.3h3.9V17.6z M6.4,12.4H2.6V8.6h3.9V12.4z M6.1,6.3C6,6.2,6,6.1,6,6V2.1C6,2,6,1.9,6.1,1.8c0.1-0.1,0.2-0.1,0.3-0.1h0.9
	c0.1,0,0.2,0,0.3,0.1C7.7,1.9,7.7,2,7.7,2.1V6c0,0.1,0,0.2-0.1,0.3C7.5,6.4,7.4,6.4,7.3,6.4H6.4C6.3,6.4,6.2,6.4,6.1,6.3L6.1,6.3z
	 M11.6,22.3H7.3v-3.9h4.3V22.3z M11.6,17.6H7.3v-4.3h4.3V17.6z M11.6,12.4H7.3V8.6h4.3V12.4z M16.7,22.3h-4.3v-3.9h4.3V22.3z
	 M16.7,17.6h-4.3v-4.3h4.3V17.6z M16.7,12.4h-4.3V8.6h4.3V12.4z M16.4,6.3c-0.1-0.1-0.1-0.2-0.1-0.3V2.1c0-0.1,0-0.2,0.1-0.3
	c0.1-0.1,0.2-0.1,0.3-0.1h0.9c0.1,0,0.2,0,0.3,0.1C18,1.9,18,2,18,2.1V6c0,0.1,0,0.2-0.1,0.3c-0.1,0.1-0.2,0.1-0.3,0.1h-0.9
	C16.6,6.4,16.5,6.4,16.4,6.3L16.4,6.3z M21.4,22.3h-3.9v-3.9h3.9V22.3z M21.4,17.6h-3.9v-4.3h3.9V17.6z M21.4,12.4h-3.9V8.6h3.9
	V12.4z M21.4,12.4"/>
</svg>
