<?xml version="1.0" encoding="utf-8"?>
<!-- Generator: Adobe Illustrator 21.1.0, SVG Export Plug-In . SVG Version: 6.00 Build 0)  -->
<svg version="1.1" id="Capa_1" xmlns="http://www.w3.org/2000/svg" xmlns:xlink="http://www.w3.org/1999/xlink" x="0px" y="0px"
	 viewBox="0 0 24 24" enable-background="new 0 0 24 24" xml:space="preserve">
<path d="M23.4,3C23,2.6,22.5,2.4,22,2.4H2C1.5,2.4,1,2.6,0.6,3C0.2,3.4,0,3.8,0,4.4v15.2c0,0.6,0.2,1,0.6,1.4
	C1,21.4,1.5,21.6,2,21.6h20c0.5,0,1-0.2,1.4-0.6c0.4-0.4,0.6-0.9,0.6-1.4V4.4C24,3.8,23.8,3.4,23.4,3z M22.4,19.6
	c0,0.1,0,0.2-0.1,0.3C22.2,20,22.1,20,22,20H2c-0.1,0-0.2,0-0.3-0.1c-0.1-0.1-0.1-0.2-0.1-0.3V4.4c0-0.1,0-0.2,0.1-0.3
	C1.8,4,1.9,4,2,4h20c0.1,0,0.2,0,0.3,0.1c0.1,0.1,0.1,0.2,0.1,0.3V19.6L22.4,19.6z"/>
<rect x="3.2" y="13.6" width="3.2" height="4.8"/>
<rect x="8" y="7.2" width="3.2" height="11.2"/>
<rect x="12.8" y="10.4" width="3.2" height="8"/>
<rect x="17.6" y="5.6" width="3.2" height="12.8"/>
</svg>
