<?xml version="1.0" encoding="utf-8"?>
<!-- Generator: Adobe Illustrator 22.1.0, SVG Export Plug-In . SVG Version: 6.00 Build 0)  -->
<svg version="1.1" id="Layer_1" xmlns="http://www.w3.org/2000/svg" xmlns:xlink="http://www.w3.org/1999/xlink" x="0px" y="0px"
	 viewBox="0 0 48 48" enable-background="new 0 0 48 48" xml:space="preserve" fill="#FFFFFF">
<g>
	<g>
		<path d="M19.678,29.864h-0.022V13.957v-2.771V2.5H7.929v27.364H7.94C8.171,38.538,15.27,45.5,24,45.5
			c0.889,0,1.757-0.082,2.606-0.222v-12.38c-0.726,0.547-1.627,0.875-2.606,0.875C21.748,33.773,19.896,32.058,19.678,29.864z"/>
	</g>
	<g>
		<path d="M40.071,29.429c0-8.876-7.195-16.071-16.071-16.071c-0.889,0-1.757,0.082-2.606,0.222v12.38
			c0.726-0.547,1.627-0.875,2.606-0.875c2.399,0,4.343,1.945,4.343,4.343c0,0.147-0.008,0.291-0.022,0.434h0.022v15.038V45.5h11.727
			V29.864H40.06C40.064,29.719,40.071,29.575,40.071,29.429z"/>
	</g>
</g>
</svg>
