<?xml version="1.0" encoding="utf-8"?>
<!-- Generator: Adobe Illustrator 20.0.0, SVG Export Plug-In . SVG Version: 6.00 Build 0)  -->
<svg version="1.1" xmlns="http://www.w3.org/2000/svg" xmlns:xlink="http://www.w3.org/1999/xlink" x="0px" y="0px" viewBox="0 0 428 96" enable-background="new 0 0 428 96" xml:space="preserve">
<path fill="#FFFFFF" d="M46.1,27.8c-2.9,0-5.8,0.6-8.6,1.7c-2.8,1.1-5.9,3.2-9.4,6.1v-6.2H12.9V90h15.2V65.6
		c0-6.3,0.2-10.4,0.7-12.3c0.8-3.6,2.4-6.5,4.6-8.5c2.2-2.1,4.9-3.1,7.9-3.1c2.4,0,4.4,0.6,6,1.9c1.6,1.2,2.7,3.1,3.4,5.4
		c0.6,2.4,1,7.2,1,14.4V90h15v-40c0-7-1.8-12.3-5.3-15.8C57.2,29.9,52.1,27.8,46.1,27.8z M109.9,27.8c-9,0-16.4,3-22.4,9.2
		c-6,6.1-8.9,13.8-8.9,23c0,9,3,16.5,9,22.5c6,6,13.7,9,23.2,9c6.1,0,11.4-1.1,15.9-3.3c4.4-2.2,8.3-5.5,11.5-10l-12.8-6
		c-4.1,3.9-9,5.9-14.6,5.9c-4.7,0-8.7-1.3-11.7-3.8c-3.1-2.5-4.9-5.9-5.6-10.2h48.8l0.1-2.9c0-10-3-18.1-9-24.2
		C127.2,30.9,119.5,27.8,109.9,27.8z M94,52.1c1.7-3.7,3.6-6.4,5.6-7.8c3.2-2.4,6.9-3.6,11.1-3.6c3.9,0,7.3,1.1,10.3,3.2
		c3,2.1,4.9,4.9,5.9,8.2H94z M171.5,7h-15.2v22.3h-7.8v13.1h7.8V90h15.2V42.4h9V29.4h-9V7z M215.7,65.1l-15.2-35.7H185L210.8,90h9.9
		l25.8-60.6H231L215.7,65.1z M264.2,4.4c-2.7,0-5,0.9-6.9,2.8c-1.9,1.9-2.8,4.2-2.8,6.8c0,2.8,1,5.2,2.9,7.1
		c1.9,1.9,4.2,2.9,6.9,2.9c2.6,0,4.9-0.9,6.8-2.9c1.9-1.9,2.8-4.2,2.8-6.9c0-2.7-1-5.1-2.9-7C269.1,5.4,266.8,4.4,264.2,4.4z
		 M256.5,90h15.2V29.4h-15.2V90z M319.9,41.9c3.1,0,5.8,0.5,8.2,1.5c2.3,1,4.7,2.7,7,5.2l12.7-7c-3-4.4-7-7.8-11.8-10.2
		c-4.8-2.4-10.2-3.6-16.2-3.6c-6.5,0-12.4,1.4-17.6,4.2c-5.3,2.8-9.3,6.7-12.3,11.6c-2.9,4.9-4.4,10.3-4.4,16.2c0,8.5,3,15.9,9,22.2
		c6,6.3,14.4,9.5,25,9.5c11.8,0,21-4.2,27.5-12.7l-12-8.2c-3.8,4.6-9.1,6.9-15.9,6.9c-5.5,0-9.9-1.6-13.3-4.9
		c-3.4-3.3-5.1-7.5-5.1-12.6c0-5.3,1.8-9.6,5.3-13C309.6,43.7,314.2,41.9,319.9,41.9z M412.1,43.7c-2.8-4.9-6.7-8.8-11.8-11.6
		c-5-2.9-10.4-4.3-16.1-4.3c-7.9,0-14.9,2.7-21,8.2c-6.9,6.3-10.4,14.2-10.4,23.6c0,8.8,3.1,16.3,9.2,22.5
		c6.1,6.2,13.6,9.3,22.2,9.3c5.9,0,11.3-1.4,16.2-4.2c4.9-2.8,8.8-6.7,11.6-11.7c2.8-5,4.3-10.3,4.3-16
		C416.3,53.9,414.9,48.6,412.1,43.7z M396.3,72.4c-3.2,3.3-7.1,5-11.9,5c-4.8,0-8.7-1.6-11.8-4.9c-3.1-3.3-4.6-7.5-4.6-12.8
		c0-5.1,1.6-9.3,4.7-12.6c3.1-3.3,7.1-4.9,11.8-4.9c4.8,0,8.8,1.6,11.9,4.9c3.1,3.2,4.6,7.5,4.6,12.7
		C401,64.8,399.4,69.1,396.3,72.4z"/>
</svg>
