<?xml version="1.0" encoding="utf-8"?>
<!-- Generator: Adobe Illustrator 22.0.1, SVG Export Plug-In . SVG Version: 6.00 Build 0)  -->
<svg version="1.1" id="Ebene_1" xmlns="http://www.w3.org/2000/svg" xmlns:xlink="http://www.w3.org/1999/xlink" x="0px" y="0px"
	 viewBox="0 0 24 24" enable-background="new 0 0 24 24" xml:space="preserve">
<path d="M23.3,20.4l-5.7-4.8c-0.6-0.5-1.2-0.8-1.7-0.7C17.2,13.3,18,11.2,18,9c0-5-4-9-9-9S0,4,0,9s4,9,9,9
	c2.2,0,4.3-0.8,5.8-2.2c0,0.5,0.2,1.1,0.7,1.7l4.8,5.7c0.8,0.9,2.2,1,3,0.2C24.3,22.6,24.2,21.3,23.3,20.4z M9,15c-3.3,0-6-2.7-6-6
	s2.7-6,6-6s6,2.7,6,6S12.3,15,9,15z"/>
</svg>
